  <svg xmlns="http://www.w3.org/2000/svg" viewBox="0 0 500 320"><path fill="#0099ff" fill-opacity="1" d="M0,224L30,208C60,192,120,160,180,138.7C240,117,300,107,360,138.7C420,171,480,245,540,261.3C600,277,660,235,720,224C780,213,840,235,900,250.7C960,267,1020,277,1080,250.7C1140,224,1200,160,1260,117.3C1320,75,1380,53,1410,42.7L1440,32L1440,320L1410,320C1380,320,1320,320,1260,320C1200,320,1140,320,1080,320C1020,320,960,320,900,320C840,320,780,320,720,320C660,320,600,320,540,320C480,320,420,320,360,320C300,320,240,320,180,320C120,320,60,320,30,320L0,320Z"></path></svg>